# xmcd
#
# Track frame offsets:
#  150
#  24698
#  49018
#  72095
#  91413
#  106865
#
# Disc length: 1728 seconds
#
# Revision: 0
# Processed by: cddbd v1.5.1PL2 Copyright (c) Steve Scherf et al.
# Submitted via: Collectorz.com Music Collector 6.9
#
DISCID=4506be06
DTITLE=Peter Busher - Father's Footsteps
DYEAR=1900
DGENRE=
TTITLE0=All I Need
TTITLE1=Father's Footsteps
TTITLE2=Till I Gain Control Again
TTITLE3=The Same Room
TTITLE4=All Ways
TTITLE5=Touch And Hold
EXTD=
EXTT0=
EXTT1=
EXTT2=
EXTT3=
EXTT4=
EXTT5=
PLAYORDER=
